<svg width="128" height="111" viewBox="0 0 128 111" fill="none" xmlns="http://www.w3.org/2000/svg">
<g clip-path="url(#clip0_4752_17)">
<mask id="mask0_4752_17" style="mask-type:luminance" maskUnits="userSpaceOnUse" x="-1" y="-20" width="130" height="131">
<path d="M129 -19.784H-1V110.216H129V-19.784Z" fill="white"/>
</mask>
<g mask="url(#mask0_4752_17)">
<path d="M53.6077 98.8128C53.2044 98.732 52.8326 98.4968 52.5852 98.1252L11.1669 35.8816C10.9264 35.5202 10.8389 35.0756 10.9248 34.6473C11.0106 34.219 11.262 33.8423 11.6236 33.6017L73.8233 -7.88265C74.5684 -8.37904 75.5676 -8.17622 76.059 -7.42876L116.949 54.7089C117.443 55.4592 117.239 56.4751 116.494 56.9772L54.8233 98.5674C54.4512 98.8187 54.0132 98.8941 53.6077 98.8128ZM14.7655 35.4167L54.3766 94.9453L113.358 55.1691L74.2514 -4.25774L14.7655 35.4167Z" fill="#FF734F"/>
<path d="M38.0832 92.8391C37.8027 92.84 37.5249 92.7674 37.2776 92.6247C36.9047 92.4101 36.6312 92.0545 36.5176 91.6366L16.8593 19.1778C16.7457 18.7578 16.8019 18.3089 17.0164 17.9308C17.2307 17.5526 17.5857 17.2773 18.0019 17.1645L89.6458 -2.16647C90.5038 -2.39739 91.3855 -1.88707 91.622 -1.02143L111.278 70.8917C111.393 71.3107 111.337 71.758 111.126 72.1355C110.913 72.5131 110.561 72.7897 110.148 72.9046L38.5057 92.7809C38.3667 92.8196 38.2251 92.8386 38.0832 92.8391ZM20.4102 19.9003L39.2094 89.1926L107.728 70.1825L88.9307 1.41165L20.4102 19.9003Z" fill="#FF734F"/>
<path d="M64.3397 66.0301C63.9331 66.0301 63.526 65.8762 63.2122 65.5672L43.8023 46.4815C43.4888 46.1734 43.312 45.7501 43.312 45.3085C43.312 44.8666 43.4888 44.4436 43.8023 44.1354L63.2122 25.0499C63.8458 24.4256 64.8584 24.4335 65.4833 25.0662L84.3541 44.1519C84.9861 44.7906 84.9861 45.8267 84.3541 46.4653L65.4833 65.5509C65.1678 65.8704 64.7537 66.0301 64.3397 66.0301ZM47.2502 45.3086L64.3241 62.0968L80.9236 45.3086L64.3241 28.5203L47.2502 45.3086Z" fill="#FF734F"/>
</g>
</g>
<defs>
<clipPath id="clip0_4752_17">
<rect width="128" height="110" fill="white" transform="translate(0 0.216003)"/>
</clipPath>
</defs>
</svg>
